<?xml version="1.0" encoding="UTF-8" standalone="no"?>
<!-- Created with Inkscape (http://www.inkscape.org/) -->

<svg
   width="149.97394mm"
   height="145.97026mm"
   viewBox="0 0 149.97394 145.97026"
   version="1.1"
   id="svg969"
   xmlns:inkscape="http://www.inkscape.org/namespaces/inkscape"
   xmlns:sodipodi="http://sodipodi.sourceforge.net/DTD/sodipodi-0.dtd"
   xmlns="http://www.w3.org/2000/svg"
   xmlns:svg="http://www.w3.org/2000/svg">
  <sodipodi:namedview
     id="namedview971"
     pagecolor="#ffffff"
     bordercolor="#000000"
     borderopacity="0.25"
     inkscape:showpageshadow="2"
     inkscape:pageopacity="0.0"
     inkscape:pagecheckerboard="0"
     inkscape:deskcolor="#d1d1d1"
     inkscape:document-units="mm"
     showgrid="false" />
  <defs
     id="defs966" />
  <g
     inkscape:label="Layer 1"
     inkscape:groupmode="layer"
     id="layer1"
     transform="translate(-32.751694,-26.091329)">
    <g
       id="g2302"
       transform="matrix(0.35277777,0,0,-0.35277777,-245.50283,473.16307)"
       style="fill:#ffffff"
       inkscape:export-filename="black.svg"
       inkscape:export-xdpi="96"
       inkscape:export-ydpi="96">
      <g
         id="g2304"
         style="fill:#ffffff">
        <g
           id="g2310"
           style="fill:#ffffff">
          <g
             id="g2312"
             style="fill:#ffffff">
            <path
               d="m 875.018,1015.595 78.194,-78.196 11.382,11.382 -78.195,78.195 z"
               style="fill:#ffffff;stroke:none"
               id="path2322" />
          </g>
        </g>
      </g>
    </g>
    <g
       id="g2324"
       transform="matrix(0.35277777,0,0,-0.35277777,-245.50283,473.16307)"
       style="fill:#ffffff">
      <g
         id="g2326"
         style="fill:#ffffff">
        <g
           id="g2332"
           style="fill:#ffffff">
          <g
             id="g2334"
             style="fill:#ffffff">
            <path
               d="m 796.789,1105.205 11.379,-11.384 150.733,150.7 33.389,-33.421 h 0.005 l 39.115,-39.08 11.376,11.385 10e-4,10e-4 -39.113,39.077 -44.766,44.807 -162.119,-162.081 z"
               style="fill:#ffffff;stroke:none"
               id="path2344" />
          </g>
        </g>
      </g>
    </g>
    <g
       id="g2346"
       transform="matrix(0.35277777,0,0,-0.35277777,-245.50283,473.16307)"
       style="fill:#ffffff">
      <g
         id="g2348"
         style="fill:#ffffff">
        <g
           id="g2354"
           style="fill:#ffffff">
          <g
             id="g2356"
             style="fill:#ffffff">
            <path
               d="m 869.326,1099.514 44.803,-44.805 11.381,11.381 v 0 l -33.42,33.423 72.504,72.505 -11.382,11.381 z"
               style="fill:#ffffff;stroke:none"
               id="path2366" />
          </g>
        </g>
      </g>
    </g>
    <g
       id="g2368"
       transform="matrix(0.35277777,0,0,-0.35277777,-245.50283,473.16307)"
       style="fill:#ffffff">
      <g
         id="g2370"
         style="fill:#ffffff">
        <g
           id="g2376"
           style="fill:#ffffff">
          <g
             id="g2378"
             style="fill:#ffffff">
            <path
               d="m 992.293,1132.903 78.195,-78.194 11.381,11.381 -78.194,78.194 z"
               style="fill:#ffffff;stroke:none"
               id="path2388" />
          </g>
        </g>
      </g>
    </g>
    <g
       id="g2390"
       transform="matrix(0.35277777,0,0,-0.35277777,-245.50283,473.16307)"
       style="fill:#ffffff">
      <g
         id="g2392"
         style="fill:#ffffff">
        <g
           id="g2398"
           style="fill:#ffffff">
          <g
             id="g2400"
             style="fill:#ffffff">
            <path
               d="m 992.293,1132.903 78.195,-78.194 11.381,11.381 -78.194,78.194 z"
               style="fill:#ffffff;stroke:none"
               id="path2410" />
          </g>
        </g>
      </g>
    </g>
    <g
       id="g2412"
       transform="matrix(0.35277777,0,0,-0.35277777,-245.50283,473.16307)"
       style="fill:#ffffff">
      <g
         id="g2414"
         style="fill:#ffffff">
        <g
           id="g2420"
           style="fill:#ffffff">
          <g
             id="g2422"
             style="fill:#ffffff">
            <path
               d="m 1037.096,876.276 -33.422,33.391 -39.077,39.112 -78.198,78.197 -11.381,-11.381 78.194,-78.196 39.078,-39.111 0.005,-0.004 44.807,-44.766 162.074,162.077 -11.382,11.381 z m -162.079,139.318 10e-4,10e-4 v 0 z"
               style="fill:#ffffff;stroke:none"
               id="path2432" />
          </g>
        </g>
      </g>
    </g>
    <g
       id="g2434"
       transform="matrix(0.35277777,0,0,-0.35277777,-245.50283,473.16307)"
       style="fill:#ffffff">
      <g
         id="g2436"
         style="fill:#ffffff">
        <g
           id="g2442"
           style="fill:#ffffff">
          <g
             id="g2444"
             style="fill:#ffffff">
            <path
               d="m 992.292,1132.903 h 10e-4 l 78.195,-78.194 33.425,-33.423 -72.505,-72.505 -39.115,-39.113 -33.389,-33.389 -145.043,145.007 33.422,33.423 33.425,33.422 33.421,-33.422 11.381,11.381 -44.802,44.805 -44.805,-44.805 -44.807,-44.805 167.809,-167.769 44.77,44.77 39.114,39.113 83.886,83.887 -44.806,44.804 -78.194,78.194 z"
               style="fill:#ffffff;stroke:none"
               id="path2454" />
          </g>
        </g>
      </g>
    </g>
    <g
       id="g2456"
       transform="matrix(0.35277777,0,0,-0.35277777,-245.50283,473.16307)"
       style="fill:#ffffff">
      <g
         id="g2458"
         style="fill:#ffffff">
        <g
           id="g2464"
           style="fill:#ffffff">
          <g
             id="g2466"
             style="fill:#ffffff">
            <path
               d="m 992.293,1222.48 -44.769,-44.769 44.766,-44.805 11.385,11.376 -33.392,33.425 33.392,33.392 33.424,33.424 145.005,-145.009 -33.421,-33.424 -39.082,-39.116 -72.502,-72.502 -33.424,33.424 -78.163,78.194 -11.385,-11.38 78.164,-78.195 44.81,-44.806 83.883,83.886 39.083,39.117 44.8,44.801 -167.768,167.773 z m 39.115,-50.462 78.195,-78.195 11.381,11.381 -78.195,78.195 z"
               style="fill:#ffffff;stroke:none"
               id="path2476" />
          </g>
        </g>
      </g>
    </g>
    <g
       id="g2478"
       transform="matrix(0.35277777,0,0,-0.35277777,-245.50283,473.16307)"
       style="fill:#ffffff">
      <g
         id="g2480"
         style="fill:#ffffff">
        <g
           id="g2486"
           style="fill:#ffffff">
          <g
             id="g2488"
             style="fill:#ffffff">
            <path
               d="m 788.753,1099.498 c 0,-7.583 6.145,-13.727 13.725,-13.727 v 0 c 7.582,0 13.729,6.144 13.729,13.727 v 0 c 0,7.58 -6.147,13.726 -13.729,13.726 v 0 c -7.58,0 -13.725,-6.146 -13.725,-13.726"
               style="fill:#ffffff;stroke:none"
               id="path2498" />
          </g>
        </g>
      </g>
    </g>
    <g
       id="g2500"
       transform="matrix(0.35277777,0,0,-0.35277777,-245.50283,473.16307)"
       style="fill:#ffffff">
      <g
         id="g2502"
         style="fill:#ffffff">
        <g
           id="g2508"
           style="fill:#ffffff">
          <g
             id="g2510"
             style="fill:#ffffff">
            <path
               d="m 1186.42,1026.78 c 0,-7.58 6.147,-13.727 13.73,-13.727 v 0 c 7.58,0 13.726,6.147 13.726,13.727 v 0 c 0,7.582 -6.146,13.728 -13.726,13.728 v 0 c -7.583,0 -13.73,-6.146 -13.73,-13.728"
               style="fill:#ffffff;stroke:none"
               id="path2520" />
          </g>
        </g>
      </g>
    </g>
    <g
       id="g2522"
       transform="matrix(0.35277777,0,0,-0.35277777,-245.50283,473.16307)"
       style="fill:#ffffff">
      <g
         id="g2524"
         style="fill:#ffffff">
        <g
           id="g2530"
           style="fill:#ffffff">
          <g
             id="g2532"
             style="fill:#ffffff">
            <path
               d="m 1106.129,1095.709 c 0,-7.581 6.146,-13.727 13.729,-13.727 v 0 c 7.579,0 13.725,6.146 13.725,13.727 v 0 c 0,7.581 -6.146,13.727 -13.725,13.727 v 0 c -7.583,0 -13.729,-6.146 -13.729,-13.727"
               style="fill:#ffffff;stroke:none"
               id="path2542" />
          </g>
        </g>
      </g>
    </g>
    <g
       id="g2544"
       transform="matrix(0.35277777,0,0,-0.35277777,-245.50283,473.16307)"
       style="fill:#ffffff">
      <g
         id="g2546"
         style="fill:#ffffff">
        <g
           id="g2552"
           style="fill:#ffffff">
          <g
             id="g2554"
             style="fill:#ffffff">
            <path
               d="m 861.091,1026.401 c 0,-7.58 6.145,-13.726 13.725,-13.726 v 0 c 7.583,0 13.73,6.146 13.73,13.726 v 0 c 0,7.582 -6.147,13.728 -13.73,13.728 v 0 c -7.58,0 -13.725,-6.146 -13.725,-13.728"
               style="fill:#ffffff;stroke:none"
               id="path2564" />
          </g>
        </g>
      </g>
    </g>
  </g>
</svg>
