<svg width="182" height="42" viewBox="0 0 182 42" fill="none" xmlns="http://www.w3.org/2000/svg">
<path fill-rule="evenodd" clip-rule="evenodd" d="M19.974 5.67403C22.3107 5.35714 28.4763 5.7635 34.4449 9.92401C34.5224 10.4986 34.5058 11.0714 34.5058 11.0714L34.9579 11.3259C35.2047 11.7718 35.4539 12.4366 35.6133 13.2189C35.8061 14.1654 35.861 15.255 35.6363 16.2971C35.4099 17.347 34.9801 18.2136 34.5592 18.8474C34.2483 19.3157 33.9518 19.6431 33.7569 19.8224C32.9946 19.8393 31.5752 20.3776 31.1693 22.2438C29.9468 22.9803 28.0273 23.7164 25.4919 23.7164C23.07 23.7164 20.5994 22.9782 18.7423 21.5484C16.8926 20.1245 15.6504 18.0167 15.6504 15.2416C15.6504 13.0341 16.5903 11.3097 17.7823 10.0415C18.9438 8.8058 20.5195 7.79783 21.4778 7.42743L19.974 5.67403ZM31.7991 10.8045C31.3292 11.3436 30.8898 11.6022 30.7644 11.6724C28.0204 11.0295 27.0319 9.46604 27.0319 9.46604C29.2168 9.4512 31.2218 9.93205 32.8218 10.7722L31.7991 10.8045Z" stroke="#B6CEF0" stroke-width="0.500579" stroke-miterlimit="10" stroke-linejoin="round"/>
<path d="M21.4575 7.43555C14.6243 8.90705 9.51416 14.8287 9.51416 21.9098C9.51416 30.0978 16.3466 36.7354 24.7749 36.7354C31.2839 36.7354 36.8378 32.775 39.0313 27.2008C38.3702 27.4039 37.6518 27.519 36.8978 27.519C33.6905 27.519 31.0905 25.5004 31.0905 23.0104C31.0905 22.7619 31.1164 22.5182 31.1662 22.2807" stroke="#B6CEF0" stroke-width="0.500579" stroke-miterlimit="10" stroke-linejoin="round"/>
<path d="M33.7954 19.8199C34.5567 19.8394 35.2281 20.2637 35.494 20.9255C35.6967 21.43 35.6207 21.9891 35.3391 22.4726C36.3458 22.0275 37.2211 21.3101 37.8334 20.3285C39.6031 17.4917 38.5331 13.5798 35.4434 11.5912C35.2935 11.4947 35.1115 11.4101 34.958 11.3262" stroke="#B6CEF0" stroke-width="0.500579" stroke-miterlimit="10" stroke-linejoin="round"/>
<path d="M35.9091 0.986328H12.6364L1 21.0009L12.6364 41.0154H35.9091L47.5455 21.0009L35.9091 0.986328Z" stroke="#B6CEF0" stroke-width="0.563152" stroke-miterlimit="10"/>
<path d="M171.739 40.6193V28.5032H173.113V33.5878H172.839C172.839 32.4579 173.007 31.4883 173.343 30.6791C173.678 29.8698 174.182 29.2437 174.854 28.8009C175.526 28.3581 176.373 28.1367 177.397 28.1367H177.465C178.992 28.1367 180.13 28.6177 180.878 29.5797C181.626 30.5264 182 31.8624 182 33.5878V40.6193H180.305V33.2214C180.305 32.1678 180.015 31.3204 179.435 30.6791C178.855 30.0377 178.045 29.7171 177.007 29.7171C175.938 29.7171 175.076 30.053 174.419 30.7249C173.778 31.3814 173.457 32.2518 173.457 33.3359V40.6193H171.739Z" fill="#B6CEF0"/>
<path d="M161.846 41.0096C160.808 41.0096 159.892 40.834 159.098 40.4828C158.319 40.1163 157.655 39.6354 157.105 39.0399C156.571 38.4291 156.158 37.7496 155.868 37.0014C155.593 36.2532 155.456 35.4898 155.456 34.711V34.3904C155.456 33.6116 155.601 32.8482 155.891 32.1C156.181 31.3365 156.601 30.657 157.151 30.0615C157.701 29.466 158.365 28.9927 159.144 28.6415C159.938 28.275 160.838 28.0918 161.846 28.0918C162.869 28.0918 163.77 28.275 164.549 28.6415C165.343 28.9927 166.015 29.466 166.564 30.0615C167.114 30.657 167.526 31.3365 167.801 32.1C168.091 32.8482 168.236 33.6116 168.236 34.3904V34.711C168.236 35.4898 168.099 36.2532 167.824 37.0014C167.549 37.7496 167.137 38.4291 166.587 39.0399C166.053 39.6354 165.389 40.1163 164.595 40.4828C163.801 40.834 162.885 41.0096 161.846 41.0096ZM161.846 39.475C162.854 39.475 163.701 39.2536 164.389 38.8108C165.091 38.3527 165.625 37.7572 165.992 37.0243C166.358 36.2761 166.542 35.4516 166.542 34.5507C166.542 33.6345 166.351 32.81 165.969 32.0771C165.602 31.3289 165.068 30.741 164.366 30.3135C163.663 29.8707 162.823 29.6493 161.846 29.6493C160.884 29.6493 160.052 29.8707 159.35 30.3135C158.647 30.741 158.105 31.3289 157.724 32.0771C157.357 32.81 157.174 33.6345 157.174 34.5507C157.174 35.4516 157.357 36.2761 157.724 37.0243C158.09 37.7572 158.617 38.3527 159.304 38.8108C160.006 39.2536 160.854 39.475 161.846 39.475Z" fill="#B6CEF0"/>
<path d="M150.215 40.6188V28.5027H151.91V40.6188H150.215ZM148.268 29.8769V28.5027H151.91V29.8769H148.268ZM150.581 26.2581C150.169 26.2581 149.856 26.1512 149.642 25.9374C149.444 25.7084 149.345 25.4259 149.345 25.09C149.345 24.754 149.444 24.4792 149.642 24.2654C149.856 24.0364 150.169 23.9219 150.581 23.9219C150.994 23.9219 151.299 24.0364 151.498 24.2654C151.696 24.4792 151.795 24.754 151.795 25.09C151.795 25.4259 151.696 25.7084 151.498 25.9374C151.299 26.1512 150.994 26.2581 150.581 26.2581Z" fill="#B6CEF0"/>
<path d="M144.331 40.7563C143.491 40.7563 142.766 40.6341 142.155 40.3898C141.544 40.1455 141.071 39.7332 140.735 39.153C140.399 38.5575 140.231 37.7635 140.231 36.771V24.6777H141.88V37.0229C141.88 37.7253 142.071 38.2674 142.453 38.6491C142.834 39.0156 143.377 39.1988 144.079 39.1988H146.255V40.7563H144.331ZM138.055 29.8082V28.5027H146.255V29.8082H138.055Z" fill="#B6CEF0"/>
<path d="M134.268 40.6188V36.9771H133.993V32.6712C133.993 31.7703 133.756 31.0832 133.283 30.6098C132.81 30.1212 132.077 29.8769 131.084 29.8769C130.626 29.8769 130.161 29.8845 129.687 29.8998C129.229 29.9151 128.786 29.938 128.359 29.9685C127.947 29.9838 127.58 30.0067 127.259 30.0372V28.5256C127.595 28.495 127.939 28.4645 128.29 28.4339C128.641 28.4034 129 28.3881 129.367 28.3881C129.748 28.3729 130.115 28.3652 130.466 28.3652C131.703 28.3652 132.695 28.5179 133.443 28.8233C134.207 29.1287 134.764 29.6097 135.115 30.2663C135.467 30.9076 135.642 31.7626 135.642 32.8315V40.6188H134.268ZM130.168 40.9395C129.313 40.9395 128.557 40.7868 127.901 40.4814C127.244 40.176 126.733 39.7332 126.366 39.153C126.015 38.5727 125.839 37.8704 125.839 37.0458C125.839 36.2365 126.023 35.5494 126.389 34.9845C126.771 34.4195 127.313 33.992 128.015 33.7018C128.733 33.3965 129.596 33.2438 130.603 33.2438H134.153V34.5493H130.489C129.527 34.5493 128.786 34.786 128.267 35.2593C127.763 35.7174 127.511 36.3205 127.511 37.0687C127.511 37.8322 127.779 38.443 128.313 38.901C128.847 39.3438 129.573 39.5652 130.489 39.5652C131.054 39.5652 131.596 39.466 132.115 39.2675C132.634 39.0537 133.069 38.7025 133.421 38.2139C133.772 37.71 133.963 37.0229 133.993 36.1526L134.497 36.8626C134.436 37.7635 134.222 38.5193 133.856 39.1301C133.489 39.7256 132.993 40.176 132.367 40.4814C131.741 40.7868 131.008 40.9395 130.168 40.9395Z" fill="#B6CEF0"/>
<path d="M116.207 41.0096C115.321 41.0096 114.512 40.8493 113.779 40.5286C113.061 40.1927 112.435 39.7346 111.901 39.1544C111.381 38.5589 110.977 37.887 110.687 37.1388C110.412 36.3754 110.274 35.5661 110.274 34.711V34.3904C110.274 33.5658 110.412 32.7795 110.687 32.0313C110.962 31.2678 111.351 30.596 111.855 30.0157C112.374 29.4202 112.992 28.9545 113.71 28.6186C114.443 28.2674 115.26 28.0918 116.161 28.0918C117.184 28.0918 118.085 28.3132 118.863 28.756C119.642 29.1988 120.268 29.8401 120.741 30.6799C121.215 31.5045 121.467 32.5199 121.497 33.7262L120.741 32.3061V23.9004H122.459V40.6202H121.085V35.2378H121.635C121.604 36.5052 121.337 37.574 120.833 38.4444C120.344 39.2994 119.696 39.9408 118.886 40.3683C118.092 40.7958 117.199 41.0096 116.207 41.0096ZM116.436 39.4979C117.26 39.4979 118.001 39.3147 118.657 38.9483C119.329 38.5818 119.856 38.0626 120.238 37.3908C120.619 36.7037 120.81 35.9173 120.81 35.0317V33.9323C120.81 33.0772 120.619 32.329 120.238 31.6877C119.856 31.0311 119.329 30.5196 118.657 30.1532C118.001 29.7867 117.252 29.6035 116.413 29.6035C115.512 29.6035 114.725 29.8249 114.054 30.2677C113.397 30.6952 112.885 31.2831 112.519 32.0313C112.168 32.7795 111.992 33.6193 111.992 34.5507C111.992 35.5127 112.175 36.3677 112.542 37.1159C112.908 37.8641 113.428 38.452 114.099 38.8795C114.771 39.2918 115.55 39.4979 116.436 39.4979Z" fill="#B6CEF0"/>
<path d="M96.6978 40.6193V28.5032H98.072V33.5878H97.7971C97.7971 32.4579 97.9651 31.4883 98.301 30.6791C98.637 29.8698 99.1408 29.2437 99.8127 28.8009C100.485 28.3581 101.332 28.1367 102.355 28.1367H102.424C103.951 28.1367 105.088 28.6177 105.836 29.5797C106.585 30.5264 106.959 31.8624 106.959 33.5878V40.6193H105.264V33.2214C105.264 32.1678 104.974 31.3204 104.393 30.6791C103.813 30.0377 103.004 29.7171 101.966 29.7171C100.897 29.7171 100.034 30.053 99.3775 30.7249C98.7362 31.3814 98.4155 32.2518 98.4155 33.3359V40.6193H96.6978Z" fill="#B6CEF0"/>
<path d="M86.686 40.9631C85.2354 40.9631 84.1284 40.4974 83.3649 39.566C82.6015 38.6193 82.2197 37.3061 82.2197 35.6265V28.4805H83.9146V35.97C83.9146 37.0236 84.1895 37.8634 84.7392 38.4895C85.3041 39.1002 86.0829 39.4056 87.0754 39.4056C88.1137 39.4056 88.9382 39.0773 89.549 38.4208C90.175 37.7642 90.488 36.8862 90.488 35.7868V28.4805H92.2058V40.6195H90.8316V35.5578H91.1064C91.1064 36.6877 90.9461 37.6573 90.6255 38.4666C90.3048 39.2606 89.8238 39.879 89.1825 40.3218C88.5412 40.7493 87.7319 40.9631 86.7547 40.9631H86.686Z" fill="#B6CEF0"/>
<path d="M72.6011 41.0096C71.5628 41.0096 70.6467 40.834 69.8527 40.4828C69.0739 40.1163 68.4097 39.6354 67.86 39.0399C67.3256 38.4291 66.9133 37.7496 66.6232 37.0014C66.3484 36.2532 66.2109 35.4898 66.2109 34.711V34.3904C66.2109 33.6116 66.356 32.8482 66.6461 32.1C66.9362 31.3365 67.3561 30.657 67.9058 30.0615C68.4555 29.466 69.1197 28.9927 69.8985 28.6415C70.6925 28.275 71.5934 28.0918 72.6011 28.0918C73.6242 28.0918 74.5251 28.275 75.3038 28.6415C76.0978 28.9927 76.7696 29.466 77.3193 30.0615C77.869 30.657 78.2813 31.3365 78.5561 32.1C78.8463 32.8482 78.9913 33.6116 78.9913 34.3904V34.711C78.9913 35.4898 78.8539 36.2532 78.579 37.0014C78.3042 37.7496 77.8919 38.4291 77.3422 39.0399C76.8078 39.6354 76.1436 40.1163 75.3496 40.4828C74.5556 40.834 73.6394 41.0096 72.6011 41.0096ZM72.6011 39.475C73.6089 39.475 74.4563 39.2536 75.1435 38.8108C75.8458 38.3527 76.3803 37.7572 76.7467 37.0243C77.1132 36.2761 77.2964 35.4516 77.2964 34.5507C77.2964 33.6345 77.1056 32.81 76.7238 32.0771C76.3574 31.3289 75.8229 30.741 75.1206 30.3135C74.4182 29.8707 73.5784 29.6493 72.6011 29.6493C71.6392 29.6493 70.807 29.8707 70.1046 30.3135C69.4022 30.741 68.8602 31.3289 68.4784 32.0771C68.112 32.81 67.9287 33.6345 67.9287 34.5507C67.9287 35.4516 68.112 36.2761 68.4784 37.0243C68.8449 37.7572 69.3717 38.3527 70.0588 38.8108C70.7612 39.2536 71.6086 39.475 72.6011 39.475Z" fill="#B6CEF0"/>
<path d="M54.9697 40.6202V23.9004H56.7104V40.6202H54.9697ZM56.2523 32.9016V31.3213L63.6503 31.2983V32.8787L56.2523 32.9016ZM56.2523 25.4579V23.9004H64.0855V25.4579H56.2523Z" fill="#B6CEF0"/>
<path d="M125.235 17.7143V5.48365H126.976V10.7286H126.701C126.701 9.52237 126.862 8.50697 127.182 7.68242C127.518 6.84261 128.022 6.20894 128.694 5.7814C129.366 5.33859 130.213 5.11719 131.236 5.11719H131.328C132.87 5.11719 134.008 5.59817 134.74 6.56013C135.489 7.5221 135.863 8.9116 135.863 10.7286V17.7143H133.664V10.2706C133.664 9.32387 133.397 8.56804 132.862 8.00308C132.328 7.42285 131.595 7.13273 130.664 7.13273C129.702 7.13273 128.923 7.43048 128.327 8.02598C127.732 8.62148 127.434 9.41549 127.434 10.408V17.7143H125.235Z" fill="white"/>
<path d="M115.392 18.1255C114.323 18.1255 113.384 17.9423 112.575 17.5758C111.765 17.2094 111.078 16.7284 110.513 16.1329C109.964 15.5221 109.544 14.8426 109.254 14.0944C108.979 13.3463 108.841 12.5828 108.841 11.8041V11.3918C108.841 10.6131 108.986 9.84959 109.276 9.1014C109.567 8.33794 109.994 7.65845 110.559 7.06295C111.124 6.45218 111.811 5.9712 112.62 5.62001C113.43 5.25354 114.354 5.07031 115.392 5.07031C116.43 5.07031 117.354 5.25354 118.163 5.62001C118.972 5.9712 119.66 6.45218 120.225 7.06295C120.79 7.65845 121.217 8.33794 121.507 9.1014C121.797 9.84959 121.942 10.6131 121.942 11.3918V11.8041C121.942 12.5828 121.797 13.3463 121.507 14.0944C121.232 14.8426 120.812 15.5221 120.247 16.1329C119.698 16.7284 119.018 17.2094 118.209 17.5758C117.4 17.9423 116.461 18.1255 115.392 18.1255ZM115.392 16.1558C116.308 16.1558 117.087 15.9573 117.728 15.5603C118.385 15.148 118.881 14.5983 119.217 13.9112C119.568 13.2241 119.744 12.453 119.744 11.5979C119.744 10.7276 119.568 9.94884 119.217 9.26173C118.866 8.57461 118.362 8.03255 117.705 7.63555C117.064 7.23855 116.293 7.04005 115.392 7.04005C114.506 7.04005 113.735 7.23855 113.079 7.63555C112.422 8.03255 111.918 8.57461 111.567 9.26173C111.216 9.94884 111.04 10.7276 111.04 11.5979C111.04 12.453 111.208 13.2241 111.544 13.9112C111.895 14.5983 112.391 15.148 113.033 15.5603C113.689 15.9573 114.476 16.1558 115.392 16.1558Z" fill="white"/>
<path d="M98.9285 22.4773C98.3635 22.4773 97.7909 22.4544 97.2107 22.4086C96.6457 22.3628 96.1037 22.3017 95.5845 22.2253V20.3701C96.1342 20.4465 96.7068 20.5075 97.3023 20.5534C97.9131 20.6144 98.4857 20.645 99.0201 20.645C100.135 20.645 101.02 20.4923 101.677 20.1869C102.349 19.8968 102.83 19.4311 103.12 18.7898C103.425 18.1637 103.578 17.3544 103.578 16.3619V14.0257L104.311 12.285C104.265 13.5219 104.006 14.5525 103.532 15.3771C103.059 16.1863 102.44 16.7971 101.677 17.2094C100.929 17.6064 100.097 17.8049 99.1804 17.8049C98.3253 17.8049 97.539 17.6446 96.8213 17.3239C96.1189 16.988 95.5082 16.5299 94.989 15.9497C94.4851 15.3694 94.0881 14.7052 93.798 13.957C93.5232 13.1936 93.3857 12.3919 93.3857 11.5521V11.1398C93.3857 10.2848 93.5308 9.49077 93.8209 8.75784C94.111 8.00965 94.5157 7.3607 95.0348 6.81101C95.554 6.26132 96.1724 5.83378 96.89 5.52839C97.623 5.22301 98.4246 5.07031 99.2949 5.07031C100.318 5.07031 101.219 5.29172 101.998 5.73453C102.776 6.16207 103.387 6.79574 103.83 7.63555C104.288 8.46009 104.54 9.4755 104.586 10.6818L103.944 10.7047V5.48258H105.685V16.2703C105.685 17.7362 105.456 18.9195 104.998 19.8204C104.555 20.7366 103.838 21.4084 102.845 21.836C101.868 22.2635 100.562 22.4773 98.9285 22.4773ZM99.5927 15.7893C100.326 15.7893 100.99 15.629 101.585 15.3084C102.196 14.9877 102.677 14.5296 103.028 13.9341C103.395 13.3234 103.578 12.5981 103.578 11.7583V10.7047C103.578 9.88013 103.387 9.18538 103.005 8.62042C102.639 8.05546 102.158 7.62792 101.562 7.3378C100.967 7.04768 100.318 6.90263 99.6156 6.90263C98.8216 6.90263 98.1192 7.08586 97.5084 7.45232C96.8977 7.81878 96.4243 8.33794 96.0884 9.00978C95.7525 9.66636 95.5845 10.4451 95.5845 11.346C95.5845 12.2469 95.7525 13.0332 96.0884 13.7051C96.4396 14.3769 96.9129 14.8961 97.5084 15.2625C98.1192 15.6137 98.814 15.7893 99.5927 15.7893Z" fill="white"/>
<path d="M88.5253 17.7138V14.0492H88.1588V9.81196C88.1588 8.97215 87.9374 8.33848 87.4946 7.91094C87.0671 7.4834 86.4334 7.26963 85.5936 7.26963C85.1202 7.26963 84.6316 7.27727 84.1277 7.29253C83.6238 7.3078 83.1429 7.32307 82.6848 7.33834C82.2267 7.35361 81.8297 7.37652 81.4938 7.40705V5.48313C81.8297 5.45259 82.1809 5.42968 82.5474 5.41442C82.9291 5.38388 83.3184 5.36861 83.7155 5.36861C84.1125 5.35334 84.4942 5.3457 84.8606 5.3457C86.1127 5.3457 87.1358 5.4984 87.9298 5.80378C88.7238 6.0939 89.3116 6.57488 89.6934 7.24673C90.0751 7.91857 90.266 8.8271 90.266 9.97229V17.7138H88.5253ZM84.5171 18.0345C83.6009 18.0345 82.8069 17.8818 82.1351 17.5764C81.4785 17.2557 80.967 16.7977 80.6005 16.2022C80.2493 15.6067 80.0737 14.889 80.0737 14.0492C80.0737 13.1788 80.2646 12.4535 80.6463 11.8733C81.0433 11.2931 81.6159 10.8579 82.3641 10.5678C83.1123 10.2624 84.0132 10.1097 85.0668 10.1097H88.3878V11.7588H84.9752C84.0895 11.7588 83.4101 11.9726 82.9367 12.4001C82.4634 12.8276 82.2267 13.3773 82.2267 14.0492C82.2267 14.721 82.4634 15.2631 82.9367 15.6754C83.4101 16.0876 84.0895 16.2938 84.9752 16.2938C85.4943 16.2938 85.9906 16.2022 86.4639 16.0189C86.9373 15.8204 87.3266 15.4998 87.632 15.057C87.9527 14.5989 88.1283 13.9728 88.1588 13.1788L88.7543 14.0492C88.678 14.9195 88.4642 15.6525 88.113 16.248C87.7771 16.8282 87.3037 17.271 86.693 17.5764C86.0975 17.8818 85.3722 18.0345 84.5171 18.0345Z" fill="white"/>
<path d="M71.7778 17.7138V5.48313H73.5185V10.522H73.4269C73.4269 8.73548 73.8163 7.42996 74.595 6.60542C75.389 5.76561 76.5724 5.3457 78.1451 5.3457H78.5574V7.31544H77.7787C76.5571 7.31544 75.6181 7.64373 74.9615 8.30031C74.3049 8.94162 73.9766 9.87304 73.9766 11.0946V17.7138H71.7778Z" fill="white"/>
<path d="M53 17.714L59.0237 0.994141H62.8258L69.0327 17.714H66.7194L61.108 2.45999L62.2074 3.00968H59.5047L60.6728 2.45999L55.2446 17.714H53ZM56.5959 12.7209L57.3517 10.7054H64.5665L65.3223 12.7209H56.5959Z" fill="white"/>
</svg>
