<svg width="201" height="28" viewBox="0 0 201 28" fill="none" xmlns="http://www.w3.org/2000/svg">
<path d="M26.785 27.3154L22.1151 0.298828H16.3257L0 27.3154H5.32619L9.14712 20.9472H20.6483L21.729 27.3154H26.785ZM18.0625 6.01094L19.8379 16.3158H11.8874L18.0625 6.01094Z" fill="white"/>
<path d="M33.9803 27.3154L35.2539 21.256L38.1871 18.9402L43.5904 27.3154H49.3798L41.9309 15.9685L51.927 8.01789H45.3659L36.5662 15.0422L39.7309 0.298828H34.7136L28.9629 27.3154H33.9803Z" fill="white"/>
<path d="M63.5457 27.3139L64.4335 23.0683H60.1494C59.1845 23.0683 59.0301 22.335 59.2231 21.4088L61.2301 12.0688H65.8229L66.6334 8.01637H62.0791L63.43 1.76392H58.5284L57.1775 8.01637H53.0093L52.1602 12.0688H56.2898L54.0899 22.4895C53.511 25.1911 54.9391 27.3139 57.7951 27.3139H63.5457Z" fill="white"/>
<path d="M76.2616 5.50916L77.3809 0.298828H71.9775L70.8583 5.50916H76.2616ZM71.4373 27.3154L75.5283 8.01789H70.5109L66.4199 27.3154H71.4373Z" fill="white"/>
<path d="M85.2593 27.6942C90.7011 27.6942 95.7957 23.9891 95.7957 16.3087C95.7957 11.4457 92.6695 7.62476 86.7259 7.62476C81.2839 7.62476 76.1895 11.3299 76.1895 19.0103C76.1895 23.8733 79.3156 27.6942 85.2593 27.6942ZM85.4908 23.6418C82.7505 23.6418 81.2067 21.6734 81.2067 18.6244C81.2067 14.2631 83.5997 11.6773 86.1855 11.6773H86.4943C89.2345 11.6773 90.7783 13.6456 90.7783 16.6947C90.7783 21.0173 88.3855 23.6418 85.7996 23.6418H85.4908Z" fill="white"/>
<path d="M101.476 27.3083L103.753 16.6175C104.41 13.5298 106.648 11.6773 108.694 11.6773H109.002C111.048 11.6773 111.665 12.9123 111.202 15.1509L108.616 27.3083H113.634L116.258 14.9579C117.3 10.1335 114.676 7.62476 110.739 7.62476C108.732 7.62476 106.918 8.2423 105.104 10.0948L105.567 8.01079H100.55L96.459 27.3083H101.476Z" fill="white"/>
<path d="M126.136 27.6942C128.298 27.6942 130.42 26.4978 131.154 25.2241L130.729 27.3083H135.747L139.876 8.01079H134.859L134.241 10.9053C133.238 8.8984 131.038 7.62476 128.298 7.62476C123.744 7.62476 118.533 12.2176 118.533 18.8559C118.533 24.2593 121.814 27.6942 126.136 27.6942ZM127.371 23.6418C125.056 23.6418 123.551 21.8278 123.551 18.8559C123.551 14.7649 126.175 11.6773 128.838 11.6773H129.147C131.385 11.6773 132.813 13.3369 132.813 16.1157C132.813 19.898 130.845 23.6031 127.68 23.6418H127.371Z" fill="white"/>
<path d="M144.524 27.3108L146.454 18.0093C147.11 14.9217 149.078 12.4516 152.668 12.4516H154.366L155.331 7.82031H154.096C151.548 7.82031 149.271 8.93954 147.766 11.7183L148.538 8.01328H143.598L139.584 27.3108H144.524Z" fill="white"/>
<path d="M163.445 5.50916L164.565 0.298828H159.161L158.042 5.50916H163.445ZM158.621 27.3154L162.712 8.01789H157.695L153.604 27.3154H158.621Z" fill="white"/>
<path d="M170.924 27.6942C173.085 27.6942 175.208 26.4978 175.941 25.2241L175.516 27.3083H180.534L184.663 8.01079H179.646L179.029 10.9053C178.025 8.8984 175.825 7.62476 173.085 7.62476C168.531 7.62476 163.32 12.2176 163.32 18.8559C163.32 24.2593 166.601 27.6942 170.924 27.6942ZM172.159 23.6418C169.843 23.6418 168.338 21.8278 168.338 18.8559C168.338 14.7649 170.962 11.6773 173.625 11.6773H173.934C176.172 11.6773 177.601 13.3369 177.601 16.1157C177.601 19.898 175.632 23.6031 172.467 23.6418H172.159Z" fill="white"/>
<path d="M196.927 27.3139L197.814 23.0683H193.53C192.565 23.0683 192.411 22.335 192.604 21.4088L194.611 12.0688H199.204L200.014 8.01637H195.46L196.811 1.76392H191.909L190.558 8.01637H186.39L185.541 12.0688H189.671L187.471 22.4895C186.892 25.1911 188.32 27.3139 191.176 27.3139H196.927Z" fill="white"/>
</svg>
